# xmcd CD database file
#
# Track frame offsets:
#	150
#	15905
#	32842
#	47152
#	61150
#	77357
#	92425
#	107070
#	124785
#	139435
#	155060
#	169262
#	186187
#	203177
#	219125
#	234137
#	252952
#	264217
#	281217
#	300079
#	314308
#
# Disc length: 4433 seconds
#
# Revision: 0
# Processed by: cddbd v1.5.2PL0 Copyright (c) Steve Scherf et al.
# Submitted via: ACXtractor (MTCDDB.DLL V2003.07.15)
#
DISCID=10114f15
DTITLE=Shorty Ranger - The Singing Wanderer
DYEAR=1988
DGENRE=Country
TTITLE0=Driftin' Along with a Song
TTITLE1=Sweet Ruby Jane
TTITLE2=Ramblin' Guitar
TTITLE3=Waiting by the Waterfall
TTITLE4=Winter Winds
TTITLE5=I'm in Love with the Country
TTITLE6=Singin' on the Mountain
TTITLE7=If Jesus Came to my House
TTITLE8=I Thank Thee Lord
TTITLE9=The North Coast Mail
TTITLE10=Little Olee Songmaker Me
TTITLE11=The Old Montana Cowboy
TTITLE12=Clear Country Morning 
TTITLE13=Blue Saddle Boy Ridin' Home
TTITLE14=The Echo Mountain Song
TTITLE15=The Cradle of Country Music
TTITLE16=That Curly Headed Girl 
TTITLE17=The Man With no Fixed Abode
TTITLE18=The Little Church at Dong Ding Along
TTITLE19=The Paper Boy
TTITLE20=Hillbilly Blues
EXTD=ID3G:   2 YEAR: 1988
EXTT0=
EXTT1=
EXTT2=
EXTT3=
EXTT4=
EXTT5=
EXTT6=
EXTT7=
EXTT8=
EXTT9=
EXTT10=
EXTT11=
EXTT12=
EXTT13=
EXTT14=
EXTT15=
EXTT16=
EXTT17=
EXTT18=
EXTT19=
EXTT20=
PLAYORDER=
